<?xml version="1.0" standalone="no"?>
<!DOCTYPE svg PUBLIC "-//W3C//DTD SVG 20010904//EN"
 "http://www.w3.org/TR/2001/REC-SVG-20010904/DTD/svg10.dtd">
<svg version="1.0" xmlns="http://www.w3.org/2000/svg"
 width="363.000000pt" height="363.000000pt" viewBox="0 0 363.000000 363.000000"
 preserveAspectRatio="xMidYMid meet">
<metadata>
Created by potrace 1.14, written by Peter Selinger 2001-2017
</metadata>
<g transform="translate(0.000000,363.000000) scale(0.100000,-0.100000)"
fill="#000000" stroke="none">
<path d="M1654 3619 c-534 -48 -1038 -345 -1336 -788 -418 -623 -418 -1409 1
-2032 259 -386 678 -666 1137 -758 713 -145 1452 158 1855 758 419 623 419
1409 1 2032 -303 450 -800 740 -1352 789 -128 11 -174 11 -306 -1z m221 -638
c-6 -5 -84 -21 -175 -35 -91 -15 -176 -29 -190 -32 l-25 -4 26 10 c19 8 272
55 364 69 6 0 6 -2 0 -8z m114 -10 c26 -17 -28 -30 -339 -82 -135 -22 -272
-47 -305 -54 -67 -16 -80 -13 -38 8 43 23 127 42 328 76 240 41 275 47 282 55
9 9 56 7 72 -3z m106 -23 c42 -19 28 -34 -28 -28 -10 1 -43 -8 -75 -18 -31
-11 -183 -41 -337 -67 -154 -26 -329 -59 -388 -75 -59 -15 -110 -23 -113 -18
-9 14 97 57 192 78 49 10 202 38 339 61 138 22 273 49 300 59 62 22 78 23 110
8z m120 -42 c35 -15 50 -42 18 -32 -56 16 -73 17 -95 2 -35 -23 -162 -50 -499
-105 -168 -28 -336 -57 -375 -66 -86 -20 -195 -54 -211 -68 -19 -14 -16 8 3
28 46 45 177 78 588 145 309 51 464 82 495 100 22 13 36 12 76 -4z m65 -66
c-55 -43 -151 -63 -773 -166 -307 -50 -457 -83 -517 -114 -22 -11 -40 -17 -40
-12 0 20 42 45 112 67 121 38 338 79 743 141 55 8 123 20 150 25 28 5 75 14
105 20 30 6 91 21 135 34 102 29 117 30 85 5z m-150 0 c-8 -5 -19 -10 -25 -10
-5 0 -3 5 5 10 8 5 20 10 25 10 6 0 3 -5 -5 -10z m190 -40 c13 -9 13 -10 0 -9
-8 0 -24 4 -35 9 l-20 9 20 0 c11 0 27 -4 35 -9z m133 -25 c30 -12 58 -35 44
-35 -13 0 -77 31 -82 40 -8 13 -4 13 38 -5z m-220 -2 c3 -5 -16 -9 -41 -10
-37 -1 -42 0 -22 7 33 11 58 12 63 3z m-203 -43 c0 -5 -6 -10 -12 -10 -7 0
-31 -3 -53 -6 -28 -5 -37 -3 -30 4 17 18 95 28 95 12z m415 0 c18 -7 18 -8 -7
-15 -16 -4 -40 -4 -55 0 -26 7 -26 8 -8 15 11 5 27 9 35 9 8 0 24 -4 35 -9z
m128 -44 c31 -16 49 -36 32 -36 -12 0 -61 26 -70 38 -9 11 -20 8 -58 -14 -27
-14 -60 -26 -75 -26 -15 0 -31 -4 -37 -8 -20 -16 -103 -28 -114 -17 -7 7 -11
7 -11 1 0 -5 -28 -16 -62 -23 -35 -7 -73 -17 -85 -22 -13 -5 -23 -5 -23 0 0 5
-32 0 -71 -10 -39 -10 -75 -17 -79 -14 -4 3 -26 -1 -48 -9 -22 -8 -76 -17
-121 -19 -44 -3 -84 -8 -88 -10 -10 -6 -202 -40 -223 -39 -8 0 -35 -5 -60 -10
-25 -6 -63 -10 -85 -9 -30 0 -36 -2 -25 -10 12 -8 8 -9 -15 -7 -17 1 -35 0
-40 -4 -9 -5 -72 -19 -105 -23 -31 -3 -166 -38 -183 -47 -10 -5 -24 -5 -33 0
-11 6 4 14 58 30 130 38 365 87 471 97 15 2 50 8 77 15 28 7 60 10 70 7 11 -3
20 -1 20 3 0 5 17 7 38 4 28 -3 32 -2 17 5 -16 8 -12 10 25 12 25 1 52 2 60 1
8 -1 24 3 35 7 11 5 72 17 135 26 63 9 129 19 145 22 17 2 46 5 67 6 20 1 34
5 32 9 -3 4 4 7 13 7 10 -1 47 7 82 15 35 9 68 16 75 15 6 -1 18 0 26 4 8 3
47 15 85 26 39 11 77 25 85 30 8 6 17 7 20 3 3 -4 22 -16 43 -26z m-260 4 c10
0 16 -4 13 -9 -9 -13 -79 -21 -111 -12 l-30 8 35 11 c19 6 44 9 55 6 11 -2 28
-4 38 -4z m-546 -7 c-10 -10 -100 -21 -117 -15 -11 5 -8 8 10 13 33 9 115 11
107 2z m-319 -54 c-18 -12 -95 -12 -82 0 10 11 63 19 82 12 11 -3 11 -5 0 -12z
m601 15 c45 -9 38 -20 -17 -27 -85 -10 -141 13 -62 26 42 7 47 7 79 1z m520
-10 c11 -11 -16 -19 -61 -17 -55 1 -70 9 -48 24 13 9 99 3 109 -7z m109 -44
c54 -33 38 -54 -18 -25 -19 10 -27 20 -24 30 7 16 -11 21 -21 5 -19 -30 -190
-77 -445 -121 -176 -30 -209 -36 -375 -63 -49 -9 -133 -22 -185 -31 -52 -9
-113 -18 -135 -21 -22 -2 -85 -13 -140 -24 -111 -21 -180 -33 -210 -34 -11 -1
-22 -3 -25 -6 -3 -3 -50 -16 -105 -29 -125 -30 -227 -67 -254 -92 -12 -11 -21
-15 -21 -10 0 20 72 68 133 89 70 25 312 84 330 81 7 -2 30 3 52 9 22 6 74 16
115 22 41 6 91 15 110 20 19 5 114 20 210 35 96 14 213 32 260 40 69 13 213
37 290 49 20 3 119 24 195 41 109 25 169 44 195 63 20 16 26 17 30 6 3 -8 20
-23 38 -34z m-935 0 c39 0 13 -18 -35 -24 -55 -6 -126 6 -98 17 23 9 73 15 95
11 11 -2 28 -4 38 -4z m620 4 c20 -4 37 -10 37 -14 0 -13 -75 -22 -124 -15
-51 8 -60 21 -18 28 46 7 66 7 105 1z m-1198 -14 c-3 -5 -16 -10 -28 -10 -18
0 -19 2 -7 10 20 13 43 13 35 0z m945 -49 c10 -1 11 -4 3 -12 -13 -13 -139
-14 -173 -1 -24 9 -22 10 20 19 25 5 65 6 90 2 25 -5 52 -8 60 -8z m506 8 c24
-6 44 -15 44 -19 0 -15 -50 -20 -100 -9 -51 11 -56 22 -15 32 11 3 21 5 23 6
2 0 23 -4 48 -10z m-1227 -6 c23 -6 23 -7 5 -14 -25 -10 -78 -11 -101 -2 -15
6 -13 9 12 14 42 9 57 10 84 2z m1340 -29 c-52 -62 -224 -102 -1016 -234 -731
-121 -985 -182 -1021 -246 -5 -9 -12 -12 -15 -7 -11 17 23 52 71 77 123 63
354 113 1033 225 268 44 542 92 610 107 161 33 313 80 330 100 9 11 15 12 17
5 2 -7 -2 -19 -9 -27z m-275 -34 c19 -7 19 -8 -9 -16 -51 -13 -175 -2 -175 16
0 19 133 20 184 0z m321 4 c22 -14 37 -52 18 -42 -5 2 -21 10 -38 18 -39 19
-38 17 -30 29 9 15 22 14 50 -5z m-1685 -4 c0 -5 -12 -10 -27 -10 -22 0 -25 2
-13 10 20 13 40 13 40 0z m655 1 c16 -7 12 -10 -23 -16 -52 -8 -155 2 -147 16
7 11 142 11 170 0z m363 -57 c54 -8 36 -24 -28 -24 -66 0 -150 12 -150 21 0
17 78 18 178 3z m607 -4 l30 -12 -24 -9 c-25 -10 -141 9 -141 22 0 21 83 20
135 -1z m112 -14 c-9 -23 -125 -73 -227 -100 -136 -35 -352 -76 -770 -146
-587 -97 -843 -149 -1002 -201 -89 -29 -162 -68 -171 -91 -3 -7 -6 -3 -6 9 -4
95 300 181 1134 317 455 75 637 109 814 152 112 28 203 63 217 85 10 16 19 -4
11 -25z m-1467 15 c24 -7 23 -8 -12 -14 -45 -9 -126 2 -106 14 15 10 83 10
118 0z m-485 -51 c4 -6 -1 -7 -11 -3 -10 4 -15 2 -11 -4 3 -5 -11 -17 -31 -27
l-37 -17 33 31 c34 32 47 36 57 20z m1593 -7 c56 -8 61 -19 12 -27 -45 -7
-185 13 -173 25 12 11 54 17 88 13 17 -3 49 -7 73 -11z m380 1 c19 -13 31 -44
17 -44 -5 0 -39 20 -64 36 -5 4 9 24 17 24 4 0 18 -7 30 -16z m-1106 -12 c10
-10 -67 -23 -98 -17 -10 2 -37 7 -58 10 -30 5 -36 9 -25 16 16 12 168 4 181
-9z m343 -53 c74 -11 100 -28 48 -31 -44 -2 -84 2 -143 14 -47 10 -52 12 -30
19 36 10 41 10 125 -2z m666 -1 c43 -12 49 -23 19 -33 -29 -9 -138 24 -119 36
19 12 54 11 100 -3z m159 4 c0 -41 -94 -88 -262 -132 -183 -47 -335 -76 -977
-186 -636 -108 -954 -193 -1005 -266 -15 -21 -16 -21 -16 -3 1 31 32 61 96 94
134 67 363 118 1100 246 598 104 812 148 948 198 38 14 76 33 85 41 16 17 31
21 31 8z m-424 -74 c35 -6 64 -15 64 -19 0 -12 -49 -17 -98 -8 -122 22 -118
21 -97 29 29 12 59 12 131 -2z m433 -9 c12 -12 20 -24 17 -27 -8 -8 -76 30
-70 40 9 14 29 9 53 -13z m-1939 2 c25 -7 25 -7 3 -13 -13 -3 -23 -2 -23 3 0
4 -6 6 -14 3 -8 -3 -23 -1 -33 5 -15 9 -14 10 12 10 17 -1 41 -4 55 -8z m1976
-76 c-14 -37 -138 -89 -316 -134 -100 -24 -363 -79 -435 -90 -27 -5 -192 -34
-365 -65 -739 -134 -1065 -214 -1137 -279 -18 -16 -23 -17 -23 -5 0 8 10 24
22 35 87 79 423 162 1233 303 663 116 990 199 1012 256 4 12 8 14 11 6 2 -7 1
-19 -2 -27z m-1736 15 c19 -6 48 -13 65 -16 47 -8 42 -14 -13 -14 -28 0 -54 5
-57 10 -4 6 -10 8 -15 5 -5 -3 -22 -2 -37 2 l-28 7 25 7 c14 4 25 7 25 8 0 1
16 -4 35 -9z m1584 -9 c41 -14 46 -19 31 -25 -25 -9 -160 25 -142 36 19 12 57
8 111 -11z m166 -97 c0 -9 -8 -7 -25 8 -13 11 -22 25 -19 30 7 12 44 -21 44
-38z m-2025 19 l30 -9 -33 -7 c-30 -6 -92 13 -92 28 0 7 56 -1 95 -12z m735 3
c14 -2 33 -4 43 -5 10 0 15 -6 12 -11 -4 -6 -30 -8 -63 -5 -31 3 -66 5 -77 6
-17 0 -17 2 -5 10 11 8 6 10 -20 6 -19 -2 -44 0 -55 4 -18 8 78 5 165 -5z
m-435 -75 c78 -17 79 -18 41 -24 -30 -5 -121 6 -196 24 -6 2 49 16 65 18 6 0
46 -8 90 -18z m855 -1 c19 -6 49 -10 65 -11 30 0 30 0 5 -10 -16 -7 -39 -6
-70 1 -46 10 -95 18 -140 20 -23 1 -23 2 -5 9 23 9 95 5 145 -9z m900 -1 c-37
-69 -275 -140 -797 -239 -147 -28 -302 -57 -343 -65 -41 -9 -115 -22 -165 -29
-432 -68 -888 -179 -946 -232 -10 -9 -19 -13 -19 -7 0 13 39 48 75 66 85 42
309 98 628 157 56 11 125 24 152 29 57 12 385 70 460 82 78 12 436 85 580 119
203 47 365 106 365 132 0 4 5 8 10 8 7 0 7 -7 0 -21z m-2260 -10 c0 -5 -7 -9
-15 -9 -8 0 -15 7 -15 15 0 9 6 12 15 9 8 -4 15 -10 15 -15z m175 -69 c50 -17
50 -18 21 -25 -32 -9 -139 22 -130 37 8 13 54 8 109 -12z m736 4 c6 -3 32 -8
57 -11 60 -6 63 -10 17 -19 -38 -7 -235 24 -235 37 0 9 146 3 161 -7z m799 5
c0 -8 4 -8 14 0 9 8 16 8 20 2 4 -5 31 -13 62 -17 37 -4 52 -10 45 -17 -6 -6
-37 -4 -93 7 -46 9 -94 17 -108 17 -23 0 -23 1 -5 9 29 12 65 12 65 -1z
m-1130 -110 c0 -18 -80 -16 -162 3 -84 19 -100 31 -53 40 23 4 215 -34 215
-43z m-590 0 c0 -13 -24 -11 -38 3 -7 7 -12 18 -12 25 0 10 6 10 25 -3 14 -9
25 -20 25 -25z m1362 26 c120 -18 160 -40 58 -32 -101 8 -210 28 -204 38 7 12
28 11 146 -6z m702 3 c-4 -6 -3 -8 3 -5 11 7 71 -10 87 -23 11 -11 -39 -6 -96
10 -49 13 -56 30 -12 30 17 0 23 -4 18 -12z m-1901 -85 c34 -9 64 -18 67 -20
8 -7 -24 -23 -47 -23 -33 0 -134 40 -128 51 9 13 37 11 108 -8z m760 -2 c60
-11 111 -21 114 -24 2 -3 -15 -8 -40 -12 -38 -6 -158 9 -247 32 l-25 6 25 7
c39 12 57 11 173 -9z m886 -8 c68 -16 72 -18 42 -24 -17 -4 -49 -2 -69 3 -20
5 -62 15 -92 21 -51 10 -53 11 -25 18 33 8 37 7 144 -18z m455 1 c4 -10 1 -14
-6 -12 -15 5 -23 28 -10 28 5 0 13 -7 16 -16z m-2288 -68 c7 -8 19 -16 26 -19
10 -4 10 -7 1 -18 -10 -10 -16 -9 -33 6 -11 10 -20 24 -20 32 0 17 8 17 26 -1z
m506 -1 c124 -25 124 -25 107 -36 -21 -13 -90 -11 -166 6 -94 22 -104 26 -73
35 38 12 52 11 132 -5z m893 -5 c59 -11 110 -22 112 -24 2 -2 -13 -7 -34 -11
-40 -7 -263 23 -263 36 0 4 15 10 33 12 17 2 35 5 38 5 3 1 54 -7 114 -18z
m727 -7 c41 -13 48 -18 32 -23 -10 -4 -28 -3 -39 3 -17 9 -27 11 -72 16 -7 0
-13 6 -13 11 0 15 34 12 92 -7z m169 -14 c-14 -11 -37 -23 -53 -26 -15 -3 -28
-9 -28 -13 0 -11 -121 -45 -150 -42 -20 2 -22 1 -10 -9 12 -8 9 -9 -12 -5 -16
4 -28 2 -28 -2 0 -9 -39 -19 -185 -48 -215 -43 -354 -66 -388 -65 -18 0 -25
-4 -21 -11 5 -8 -4 -9 -28 -5 -20 3 -40 1 -46 -5 -6 -6 -38 -11 -70 -12 -33 0
-58 -4 -56 -7 5 -9 -122 -28 -147 -22 -12 4 -20 2 -17 -3 4 -5 -4 -9 -15 -10
-27 -1 -69 -8 -171 -29 -43 -9 -85 -14 -92 -11 -7 3 -16 1 -19 -4 -3 -5 -13
-9 -23 -9 -30 -1 -246 -43 -263 -51 -9 -5 -36 -12 -60 -15 -67 -10 -200 -56
-223 -76 -22 -21 -29 -20 -21 3 6 15 50 42 71 43 6 0 22 6 35 12 43 22 127 42
150 36 15 -4 20 -3 15 5 -5 8 0 12 13 12 10 0 46 6 78 14 93 23 712 131 893
157 66 9 173 29 290 54 36 7 92 19 125 25 207 41 366 87 431 124 46 26 60 23
25 -5z m-2093 -56 c74 -17 87 -27 51 -38 -25 -8 -81 1 -129 21 -27 12 -32 17
-20 24 19 12 14 13 98 -7z m745 1 c56 -10 106 -20 111 -25 21 -19 -89 -21
-194 -3 -104 17 -121 26 -75 37 35 8 54 7 158 -9z m865 -4 c78 -14 90 -25 40
-33 -37 -7 -211 27 -188 36 24 9 54 15 65 12 6 -1 43 -8 83 -15z m452 -10 c0
-5 -2 -10 -4 -10 -3 0 -8 5 -11 10 -3 6 -1 10 4 10 6 0 11 -4 11 -10z m31 -48
c-17 -32 -111 -95 -111 -75 0 5 -4 3 -8 -4 -9 -14 -142 -50 -322 -86 -136 -28
-468 -87 -479 -85 -3 1 -13 -2 -21 -5 -22 -9 -187 -33 -280 -40 -14 -1 -27 -5
-30 -8 -3 -3 -36 -11 -75 -17 -38 -6 -137 -22 -219 -37 -82 -14 -155 -24 -163
-21 -8 3 -12 2 -9 -3 3 -4 -32 -16 -77 -26 -45 -9 -103 -25 -129 -35 -26 -10
-49 -15 -52 -12 -3 2 -21 -7 -41 -22 -39 -30 -48 -21 -12 11 43 39 171 78 377
116 14 3 86 17 160 31 74 14 169 30 210 36 41 5 113 17 160 25 47 9 155 27
240 40 258 41 435 74 565 107 44 11 89 21 100 23 39 5 183 66 200 85 22 25 29
26 16 2z m-2256 -18 c26 -17 33 -34 13 -34 -14 0 -48 30 -48 42 0 12 8 10 35
-8z m513 0 c45 -9 82 -20 82 -24 0 -16 -86 -18 -154 -4 -96 20 -106 24 -81 34
31 13 62 12 153 -6z m855 0 c48 -9 87 -20 87 -24 0 -16 -87 -16 -182 -1 -96
15 -120 25 -75 34 45 9 84 7 170 -9z m687 0 c73 -30 42 -45 -45 -22 -49 13
-57 24 -22 31 12 2 23 5 24 6 2 0 21 -6 43 -15z m-1850 -74 c62 -16 69 -23 35
-32 -30 -7 -91 4 -130 25 -19 10 -19 10 0 18 11 4 27 6 35 4 8 -2 35 -9 60
-15z m733 -1 c42 -6 77 -15 77 -19 0 -18 -93 -20 -181 -5 -52 9 -96 18 -98 20
-5 5 15 12 49 18 27 5 35 4 153 -14z m820 0 c31 -7 57 -15 57 -19 0 -16 -70
-18 -140 -4 -84 16 -93 21 -54 29 16 4 34 8 39 10 6 2 17 2 25 0 8 -2 41 -9
73 -16z m427 -9 c0 -5 -4 -10 -10 -10 -5 0 -10 5 -10 10 0 6 5 10 10 10 6 0
10 -4 10 -10z m26 -47 c-14 -43 -133 -92 -336 -137 -113 -25 -504 -92 -905
-156 -332 -53 -574 -107 -632 -142 -37 -22 -44 -9 -11 21 48 46 263 96 728
171 301 48 524 85 635 105 264 48 460 104 501 144 22 21 28 20 20 -6z m-2156
-23 c14 -11 19 -20 12 -20 -19 0 -52 19 -52 30 0 15 12 12 40 -10z m483 8 c42
-6 77 -15 77 -18 0 -16 -94 -19 -161 -5 -39 8 -73 15 -77 16 -4 0 2 4 13 9 28
12 59 12 148 -2z m832 -1 c39 -7 66 -15 60 -18 -36 -21 -131 -18 -235 8 l-25
6 25 7 c37 12 96 10 175 -3z m650 1 c48 -22 16 -42 -40 -25 -61 18 -62 19 -40
27 29 12 50 12 80 -2z m-1766 -70 c54 -12 59 -28 9 -28 -38 0 -108 20 -108 32
0 11 40 10 99 -4z m692 1 c38 -7 69 -15 69 -19 0 -19 -160 -12 -250 10 -3 1 4
5 15 10 29 12 85 12 166 -1z m779 0 c76 -16 52 -33 -39 -26 -42 3 -85 9 -96
13 -19 8 -19 8 5 15 38 11 74 10 130 -2z m400 -9 c0 -5 -4 -10 -10 -10 -5 0
-10 5 -10 10 0 6 5 10 10 10 6 0 10 -4 10 -10z m15 -60 c-53 -58 -290 -117
-815 -200 -639 -102 -828 -141 -882 -180 -21 -16 -28 -17 -28 -7 0 8 -13 20
-30 27 -32 13 -56 37 -47 46 3 4 25 -3 48 -14 42 -21 42 -21 80 -1 61 31 221
65 549 119 752 123 886 149 1023 195 39 14 80 34 91 45 18 18 21 18 24 5 2 -9
-4 -25 -13 -35z m-1529 -8 c13 -7 10 -10 -16 -16 -41 -8 -166 14 -148 26 16
11 141 3 164 -10z m786 0 c17 -17 -74 -23 -151 -11 -56 9 -70 15 -55 21 24 10
194 2 206 -10z m573 9 c19 -8 19 -8 -1 -19 -15 -8 -31 -8 -59 0 -30 10 -34 13
-19 19 24 10 54 10 79 0z m-977 -70 c24 -7 22 -8 -19 -14 -37 -5 -106 1 -169
14 -3 1 6 5 20 9 26 9 121 3 168 -9z m715 0 c13 -13 -57 -23 -100 -15 -54 10
-63 18 -28 26 36 8 116 1 128 -11z m377 -21 c0 -5 -11 -20 -25 -34 -54 -54
-278 -106 -820 -191 -432 -68 -674 -120 -691 -146 -6 -10 -104 37 -104 50 0
18 14 18 56 0 41 -17 47 -17 68 -4 41 27 214 64 556 120 640 105 829 144 906
190 44 26 54 29 54 15z m-1870 -52 c0 -12 -14 -9 -38 8 -33 23 -27 36 8 16 16
-9 30 -20 30 -24z m1130 11 c11 -6 5 -9 -20 -10 -89 -6 -160 10 -100 21 38 8
96 2 120 -11z m555 1 c4 -6 -8 -10 -29 -10 -20 0 -36 5 -36 10 0 6 13 10 29
10 17 0 33 -4 36 -10z m-1525 -50 c0 -5 8 -10 18 -11 15 0 15 -1 -2 -8 -11 -4
-37 -3 -60 3 l-40 11 34 6 c19 4 38 7 43 8 4 0 7 -3 7 -9z m1255 1 c16 -7 13
-9 -18 -15 -21 -4 -48 -4 -60 0 -21 7 -20 8 8 15 40 9 47 9 70 0z m365 -21 c0
-17 -37 -49 -77 -66 -89 -37 -237 -68 -623 -129 -391 -62 -548 -93 -602 -121
-26 -13 -38 -14 -68 -5 -39 11 -68 36 -56 48 3 4 28 0 55 -9 41 -13 51 -13 63
-2 22 22 191 61 428 98 311 49 377 60 495 83 229 43 365 82 365 105 0 4 5 8
10 8 6 0 10 -4 10 -10z m-1687 -56 c-3 -9 -13 -7 -39 8 -19 11 -32 23 -29 28
8 12 74 -22 68 -36z m372 17 c17 -7 16 -9 -11 -13 -46 -6 -110 2 -93 13 17 11
77 10 104 0z m-226 -53 c9 -8 12 -9 7 -1 -4 7 1 9 15 6 18 -5 19 -7 5 -15 -18
-10 -86 0 -86 13 0 13 44 11 59 -3z m531 2 c12 -6 -58 -15 -85 -11 l-30 5 30
6 c28 5 74 5 85 0z m905 -20 c-33 -54 -203 -98 -645 -166 -208 -32 -395 -71
-437 -91 -26 -12 -39 -13 -67 -3 -65 21 -61 49 4 32 34 -8 49 -7 83 8 45 20
179 49 347 75 58 9 128 20 155 25 28 5 104 19 170 30 149 25 317 65 353 85 32
17 46 19 37 5z m-1155 -30 c-8 -5 -40 -9 -70 -9 -42 1 -49 3 -30 9 38 12 119
12 100 0z m549 6 c-2 -2 -22 -6 -44 -9 -28 -5 -34 -4 -20 3 19 8 73 14 64 6z
m-710 -45 c11 -7 10 -11 -7 -20 -23 -12 -86 4 -76 20 7 11 65 11 83 0z m421 0
c0 -5 -16 -11 -35 -13 -19 -2 -35 -1 -35 3 0 4 15 10 33 12 17 2 33 5 35 5 1
1 2 -2 2 -7z m-205 -40 c6 -11 -54 -25 -82 -19 -13 4 -9 8 17 15 46 14 58 15
65 4z m-107 -43 c-3 -7 -10 -13 -16 -12 -7 1 -21 2 -32 3 -35 2 -21 21 16 21
24 0 34 -4 32 -12z m168 -33 c-22 -16 -57 -21 -40 -6 7 8 29 15 54 20 3 0 -4
-6 -14 -14z m719 -21 c-33 -13 -391 -79 -475 -89 -14 -1 -38 -6 -54 -10 -18
-5 -27 -4 -23 2 8 13 85 29 227 49 63 9 117 17 120 19 3 2 23 6 45 10 22 3 69
12 105 19 86 18 104 18 55 0z m-784 -12 c-7 -2 -18 1 -23 6 -8 8 -4 9 13 5 13
-4 18 -8 10 -11z m125 -63 c3 -6 2 -14 -2 -18 -11 -10 -74 6 -74 19 0 14 67
13 76 -1z m371 -15 c-3 -3 -12 -4 -19 -1 -8 3 -5 6 6 6 11 1 17 -2 13 -5z"/>
<path d="M2578 1523 c7 -3 16 -2 19 1 4 3 -2 6 -13 5 -11 0 -14 -3 -6 -6z"/>
</g>
</svg>
